{
  "source": "C:\\Users\\Peter\\Desktop\\stuff\\MIUN\\quantitative_research\\video_compression\\videos\\BVI-HD\\BVI-HD_CDVL_videos\\ORIG\\BallUnderWater_1920x1080_60fps.mp4",
  "output": "C:\\Users\\Peter\\Desktop\\stuff\\MIUN\\quantitative_research\\video_compression\\compressed_videos\\BVI-HD\\h264\\1.5\\BallUnderWater_1920x1080_60fps_h264.mp4",
  "codec": "h264",
  "ok": "Input #0, mov,mp4,m4a,3gp,3g2,mj2, from 'C:\\Users\\Peter\\Desktop\\stuff\\MIUN\\quantitative_research\\video_compression\\videos\\BVI-HD\\BVI-HD_CDVL_videos\\ORIG\\BallUnderWater_1920x1080_60fps.mp4':\n  Metadata:\n    major_brand     : isom\n    minor_version   : 512\n    compatible_brands: isomiso2avc1mp41\n    encoder         : Lavf54.28.101\n  Duration: 00:00:05.00, start: 0.000000, bitrate: 212030 kb/s\n  Stream #0:0[0x1](und): Video: h264 (High 4:4:4 Predictive) (avc1 / 0x31637661), yuv420p(progressive), 1920x1080, 212025 kb/s, 60 fps, 60 tbr, 60 tbn (default)\n    Metadata:\n      handler_name    : VideoHandler\n      vendor_id       : [0][0][0][0]\n[out#0/mp4 @ 000001ce24bcae00] Codec AVOption b:a (set bitrate (in bits/s)) has not been used for any stream. The most likely reason is either wrong type (e.g. a video option with no video streams) or that it is a private option of some decoder which was not actually used for any stream.\nStream mapping:\n  Stream #0:0 -> #0:0 (h264 (native) -> h264 (libx264))\nPress [q] to stop, [?] for help\n[libx264 @ 000001ce25354340] using cpu capabilities: MMX2 SSE2Fast SSSE3 SSE4.2 AVX FMA3 BMI2 AVX2\n[libx264 @ 000001ce25354340] profile High, level 5.0, 4:2:0, 8-bit\n[libx264 @ 000001ce25354340] 264 - core 165 r3222 b35605a - H.264/MPEG-4 AVC codec - Copyleft 2003-2025 - http://www.videolan.org/x264.html - options: cabac=1 ref=5 deblock=1:0:0 analyse=0x3:0x113 me=hex subme=8 psy=1 psy_rd=1.00:0.00 mixed_ref=1 me_range=16 chroma_me=1 trellis=2 8x8dct=1 cqm=0 deadzone=21,11 fast_pskip=1 chroma_qp_offset=-2 threads=18 lookahead_threads=3 sliced_threads=0 nr=0 decimate=1 interlaced=0 bluray_compat=0 constrained_intra=0 bframes=3 b_pyramid=2 b_adapt=1 b_bias=0 direct=3 weightb=1 open_gop=0 weightp=2 keyint=250 keyint_min=25 scenecut=40 intra_refresh=0 rc_lookahead=50 rc=cbr mbtree=1 bitrate=1500 ratetol=1.0 qcomp=0.60 qpmin=0 qpmax=69 qpstep=4 vbv_maxrate=1500 vbv_bufsize=1500 nal_hrd=none filler=0 ip_ratio=1.40 aq=1:1.00\nOutput #0, mp4, to 'C:\\Users\\Peter\\Desktop\\stuff\\MIUN\\quantitative_research\\video_compression\\compressed_videos\\BVI-HD\\h264\\1.5\\BallUnderWater_1920x1080_60fps_h264.mp4':\n  Metadata:\n    major_brand     : isom\n    minor_version   : 512\n    compatible_brands: isomiso2avc1mp41\n    encoder         : Lavf62.3.100\n  Stream #0:0(und): Video: h264 (avc1 / 0x31637661), yuv420p(tv, progressive), 1920x1080, q=2-31, 1500 kb/s, 60 fps, 15360 tbn (default)\n    Metadata:\n      encoder         : Lavc62.11.100 libx264\n      handler_name    : VideoHandler\n      vendor_id       : [0][0][0][0]\n    Side data:\n      cpb: bitrate max/min/avg: 1500000/0/1500000 buffer size: 1500000 vbv_delay: N/A\nframe=    0 fps=0.0 q=0.0 size=       0KiB time=N/A bitrate=N/A speed=N/A elapsed=0:00:00.51    \nframe=    0 fps=0.0 q=0.0 size=       0KiB time=N/A bitrate=N/A speed=N/A elapsed=0:00:01.40    \nframe=    0 fps=0.0 q=0.0 size=       0KiB time=N/A bitrate=N/A speed=N/A elapsed=0:00:01.94    \nframe=    0 fps=0.0 q=0.0 size=       0KiB time=N/A bitrate=N/A speed=N/A elapsed=0:00:02.77    \nframe=    0 fps=0.0 q=0.0 size=       0KiB time=N/A bitrate=N/A speed=N/A elapsed=0:00:03.50    \nframe=    6 fps=1.5 q=47.0 size=       0KiB time=00:00:00.06 bitrate=   5.8kbits/s speed=0.0162x elapsed=0:00:04.11    \nframe=    6 fps=1.3 q=47.0 size=       0KiB time=00:00:00.06 bitrate=   5.8kbits/s speed=0.0139x elapsed=0:00:04.78    \nframe=    8 fps=1.5 q=47.0 size=       0KiB time=00:00:00.10 bitrate=   3.8kbits/s speed=0.0189x elapsed=0:00:05.29    \nframe=   11 fps=1.9 q=47.0 size=       0KiB time=00:00:00.15 bitrate=   2.6kbits/s speed=0.0258x elapsed=0:00:05.82    \nframe=   14 fps=2.2 q=47.0 size=       0KiB time=00:00:00.20 bitrate=   1.9kbits/s speed=0.0316x elapsed=0:00:06.32    \nframe=   25 fps=3.7 q=47.0 size=       0KiB time=00:00:00.38 bitrate=   1.0kbits/s speed=0.056x elapsed=0:00:06.84    \nframe=   29 fps=3.9 q=46.0 size=       0KiB time=00:00:00.45 bitrate=   0.9kbits/s speed=0.0612x elapsed=0:00:07.35    \nframe=   37 fps=4.7 q=46.0 size=       0KiB time=00:00:00.58 bitrate=   0.7kbits/s speed=0.0741x elapsed=0:00:07.87    \nframe=   45 fps=5.4 q=47.0 size=       0KiB time=00:00:00.71 bitrate=   0.5kbits/s speed=0.0854x elapsed=0:00:08.39    \nframe=   57 fps=6.4 q=46.0 size=       0KiB time=00:00:00.91 bitrate=   0.4kbits/s speed=0.103x elapsed=0:00:08.90    \nframe=   59 fps=6.3 q=46.0 size=       0KiB time=00:00:00.95 bitrate=   0.4kbits/s speed=0.101x elapsed=0:00:09.41    \nframe=   60 fps=6.0 q=46.0 size=       0KiB time=00:00:00.96 bitrate=   0.4kbits/s speed=0.0972x elapsed=0:00:09.94    \nframe=   62 fps=5.9 q=46.0 size=       0KiB time=00:00:01.00 bitrate=   0.4kbits/s speed=0.0957x elapsed=0:00:10.45    \nframe=   65 fps=5.9 q=46.0 size=       0KiB time=00:00:01.05 bitrate=   0.4kbits/s speed=0.0957x elapsed=0:00:10.96    \nframe=   69 fps=6.0 q=46.0 size=       0KiB time=00:00:01.13 bitrate=   0.3kbits/s speed=0.0986x elapsed=0:00:11.49    \nframe=   75 fps=6.2 q=46.0 size=       0KiB time=00:00:01.21 bitrate=   0.3kbits/s speed=0.101x elapsed=0:00:12.00    \nframe=   81 fps=6.5 q=44.0 size=       0KiB time=00:00:01.31 bitrate=   0.3kbits/s speed=0.105x elapsed=0:00:12.52    \nframe=   89 fps=6.8 q=45.0 size=       0KiB time=00:00:01.45 bitrate=   0.3kbits/s speed=0.111x elapsed=0:00:13.02    \nframe=   95 fps=7.0 q=45.0 size=     256KiB time=00:00:01.55 bitrate=1353.2kbits/s speed=0.114x elapsed=0:00:13.54    \nframe=  100 fps=7.1 q=45.0 size=     256KiB time=00:00:01.63 bitrate=1284.2kbits/s speed=0.116x elapsed=0:00:14.06    \nframe=  105 fps=7.2 q=45.0 size=     256KiB time=00:00:01.71 bitrate=1221.9kbits/s speed=0.118x elapsed=0:00:14.57    \nframe=  107 fps=7.1 q=45.0 size=     256KiB time=00:00:01.75 bitrate=1198.6kbits/s speed=0.116x elapsed=0:00:15.09    \nframe=  112 fps=7.2 q=45.0 size=     256KiB time=00:00:01.83 bitrate=1144.1kbits/s speed=0.117x elapsed=0:00:15.60    \nframe=  119 fps=7.4 q=45.0 size=     256KiB time=00:00:01.95 bitrate=1075.7kbits/s speed=0.121x elapsed=0:00:16.12    \nframe=  125 fps=7.5 q=45.0 size=     256KiB time=00:00:02.05 bitrate=1023.2kbits/s speed=0.123x elapsed=0:00:16.64    \nframe=  131 fps=7.6 q=46.0 size=     256KiB time=00:00:02.15 bitrate= 975.6kbits/s speed=0.125x elapsed=0:00:17.15    \nframe=  137 fps=7.8 q=45.0 size=     256KiB time=00:00:02.25 bitrate= 932.2kbits/s speed=0.127x elapsed=0:00:17.67    \nframe=  143 fps=7.9 q=45.0 size=     256KiB time=00:00:02.35 bitrate= 892.6kbits/s speed=0.129x elapsed=0:00:18.18    \nframe=  149 fps=8.0 q=45.0 size=     256KiB time=00:00:02.45 bitrate= 856.1kbits/s speed=0.131x elapsed=0:00:18.69    \nframe=  154 fps=8.0 q=45.0 size=     256KiB time=00:00:02.53 bitrate= 828.0kbits/s speed=0.132x elapsed=0:00:19.21    \nframe=  161 fps=8.2 q=45.0 size=     256KiB time=00:00:02.65 bitrate= 791.5kbits/s speed=0.134x elapsed=0:00:19.74    \nframe=  165 fps=8.1 q=46.0 size=     256KiB time=00:00:02.71 bitrate= 772.1kbits/s speed=0.134x elapsed=0:00:20.25    \nframe=  171 fps=8.2 q=45.0 size=     512KiB time=00:00:02.81 bitrate=1489.2kbits/s speed=0.136x elapsed=0:00:20.77    \nframe=  177 fps=8.3 q=45.0 size=     512KiB time=00:00:02.91 bitrate=1438.2kbits/s speed=0.137x elapsed=0:00:21.27    \nframe=  183 fps=8.4 q=45.0 size=     512KiB time=00:00:03.01 bitrate=1390.5kbits/s speed=0.138x elapsed=0:00:21.79    \nframe=  190 fps=8.5 q=45.0 size=     512KiB time=00:00:03.13 bitrate=1338.7kbits/s speed=0.14x elapsed=0:00:22.30    \nframe=  196 fps=8.6 q=45.0 size=     512KiB time=00:00:03.23 bitrate=1297.3kbits/s speed=0.142x elapsed=0:00:22.83    \nframe=  200 fps=8.6 q=45.0 size=     512KiB time=00:00:03.30 bitrate=1271.1kbits/s speed=0.141x elapsed=0:00:23.35    \nframe=  202 fps=8.5 q=45.0 size=     512KiB time=00:00:03.33 bitrate=1258.4kbits/s speed=0.14x elapsed=0:00:23.85    \nframe=  209 fps=8.6 q=46.0 size=     512KiB time=00:00:03.45 bitrate=1215.9kbits/s speed=0.142x elapsed=0:00:24.38    \nframe=  215 fps=8.6 q=46.0 size=     512KiB time=00:00:03.55 bitrate=1181.6kbits/s speed=0.143x elapsed=0:00:24.88    \nframe=  221 fps=8.7 q=46.0 size=     512KiB time=00:00:03.65 bitrate=1149.2kbits/s speed=0.144x elapsed=0:00:25.41    \nframe=  226 fps=8.7 q=46.0 size=     512KiB time=00:00:03.73 bitrate=1123.6kbits/s speed=0.144x elapsed=0:00:25.92    \nframe=  232 fps=8.8 q=46.0 size=     512KiB time=00:00:03.83 bitrate=1094.3kbits/s speed=0.145x elapsed=0:00:26.44    \nframe=  248 fps=9.2 q=46.0 size=     512KiB time=00:00:04.10 bitrate=1023.1kbits/s speed=0.152x elapsed=0:00:26.95    \nframe=  253 fps=9.2 q=47.0 size=     768KiB time=00:00:04.18 bitrate=1504.0kbits/s speed=0.152x elapsed=0:00:27.47    \nframe=  253 fps=9.0 q=47.0 size=     768KiB time=00:00:04.18 bitrate=1504.0kbits/s speed=0.149x elapsed=0:00:27.99    \nframe=  271 fps=9.5 q=47.0 size=     768KiB time=00:00:04.48 bitrate=1403.4kbits/s speed=0.157x elapsed=0:00:28.52    \nframe=  271 fps=9.3 q=47.0 size=     768KiB time=00:00:04.48 bitrate=1403.4kbits/s speed=0.154x elapsed=0:00:29.03    \nframe=  291 fps=9.8 q=-1.0 size=     768KiB time=00:00:04.81 bitrate=1306.3kbits/s speed=0.163x elapsed=0:00:29.55    \n[mp4 @ 000001ce2549a040] Starting second pass: moving the moov atom to the beginning of the file\n[out#0/mp4 @ 000001ce24bcae00] video:917KiB audio:0KiB subtitle:0KiB other streams:0KiB global headers:0KiB muxing overhead: 0.289989%\nframe=  300 fps= 10 q=-1.0 Lsize=     920KiB time=00:00:04.96 bitrate=1516.9kbits/s speed=0.166x elapsed=0:00:29.96    \n[libx264 @ 000001ce25354340] frame I:3     Avg QP:38.50  size:  6965\n[libx264 @ 000001ce25354340] frame P:238   Avg QP:42.03  size:  3333\n[libx264 @ 000001ce25354340] frame B:59    Avg QP:44.65  size:  2102\n[libx264 @ 000001ce25354340] consecutive B-frames: 73.3%  0.7%  2.0% 24.0%\n[libx264 @ 000001ce25354340] mb I  I16..4: 37.6% 62.4%  0.1%\n[libx264 @ 000001ce25354340] mb P  I16..4: 10.1% 23.8%  0.0%  P16..4:  7.9%  0.1%  0.1%  0.0%  0.0%    skip:57.9%\n[libx264 @ 000001ce25354340] mb B  I16..4:  1.4%  1.7%  0.0%  B16..8: 19.5%  0.3%  0.0%  direct: 0.2%  skip:77.0%  L0:49.9% L1:48.3% BI: 1.7%\n[libx264 @ 000001ce25354340] 8x8 transform intra:69.5% inter:95.8%\n[libx264 @ 000001ce25354340] direct mvs  spatial:84.7% temporal:15.3%\n[libx264 @ 000001ce25354340] coded y,uvDC,uvAC intra: 0.5% 12.0% 0.1% inter: 0.1% 1.5% 0.0%\n[libx264 @ 000001ce25354340] i16 v,h,dc,p: 33% 37%  3% 27%\n[libx264 @ 000001ce25354340] i8 v,h,dc,ddl,ddr,vr,hd,vl,hu:  2%  1% 96%  0%  0%  0%  0%  0%  0%\n[libx264 @ 000001ce25354340] i4 v,h,dc,ddl,ddr,vr,hd,vl,hu:  0%  0% 92%  4%  2%  0%  1%  0%  0%\n[libx264 @ 000001ce25354340] i8c dc,h,v,p: 96%  3%  1%  0%\n[libx264 @ 000001ce25354340] Weighted P-Frames: Y:5.9% UV:2.1%\n[libx264 @ 000001ce25354340] ref P L0: 47.0%  3.0% 22.7% 10.3%  9.0%  7.5%  0.4%\n[libx264 @ 000001ce25354340] ref B L0: 70.9% 17.3%  9.1%  2.7%\n[libx264 @ 000001ce25354340] ref B L1: 90.0% 10.0%\n[libx264 @ 000001ce25354340] kb/s:1501.18\n",
  "seconds": 33.43421268463135,
  "probe_out": {}
}